#Comment line ignore any data following # character 
#Hierarchical Translation and Rotation (.htr) file 
[Header]	
#Header keywords are followed by a single value 
FileType HTR		#Single word string
DataType HTRS		#Translation followed by rotation and scale data
FileVersion 1		#integer
NumSegments 64		#integer
NumFrames 3		#integer
DataFrameRate 30		#integer, data frame rate in this file
EulerRotationOrder ZYX
CalibrationUnits mm
RotationUnits Degrees
GlobalAxisofGravity Y
BoneLengthAxis Y
ScaleFactor 1.00
[SegmentNames&Hierarchy]
#CHILD	PARENT
Pinger_Root GLOBAL
Pelvis Pinger_Root
L_Hip Pelvis
R_Hip Pelvis
Rear_Leg01 Pelvis
Spine1 Pelvis
L_Leg01 L_Hip
L_Leg02 L_Leg01
L_Leg03 L_Leg02
L_Foot L_Leg03
L_Toe1_01 L_Foot
L_Toe2_01 L_Foot
L_Toe3_01 L_Foot
planeAlignerLeft L_Foot
L_Toe1_02 L_Toe1_01
L_Toe1_03 L_Toe1_02
L_Toe2_02 L_Toe2_01
L_Toe2_03 L_Toe2_02
L_Toe3_02 L_Toe3_01
L_Toe3_03 L_Toe3_02
planeLockWeightLeft planeAlignerLeft
R_Leg01 R_Hip
R_Leg02 R_Leg01
R_Leg03 R_Leg02
R_Foot R_Leg03
planeAlignerRight R_Foot
R_Toe1_01 R_Foot
R_Toe2_01 R_Foot
R_Toe3_01 R_Foot
planeLockWeightRight planeAlignerRight
R_Toe1_02 R_Toe1_01
R_Toe1_03 R_Toe1_02
R_Toe2_02 R_Toe2_01
R_Toe2_03 R_Toe2_02
R_Toe3_02 R_Toe3_01
R_Toe3_03 R_Toe3_02
Rear_Leg02 Rear_Leg01
Rear_Leg03 Rear_Leg02
Rear_Leg04 Rear_Leg03
Rear_Foot Rear_Leg04
planeAlignerCenter Rear_Foot
Rear_Toe1_01 Rear_Foot
Rear_Toe2_01 Rear_Foot
Rear_Toe3_01 Rear_Foot
planeLockWeightCenter planeAlignerCenter
Rear_Toe1_02 Rear_Toe1_01
Rear_Toe1_03 Rear_Toe1_02
Rear_Toe2_02 Rear_Toe2_01
Rear_Toe2_03 Rear_Toe2_02
Rear_Toe3_02 Rear_Toe3_01
Rear_Toe3_03 Rear_Toe3_02
Back_Bone Spine1
Head Spine1
Motor_Bone Back_Bone
Ping_Mechanism Back_Bone
BN_LookIK Head
bottomMouth Head
L_Mouth01 Head
L_mouthFront Head
mouthGun Head
R_Mouth01 Head
R_mouthFront Head
TopMouth Head
weapon_bone Head
[BasePosition]
#SegmentName Tx, Ty, Tz, Rx, Ry, Rz, BoneLength
Pinger_Root 0.000000 0.000000 0.000000 -90.000000 0.000000 0.000000 10.000000 
Pelvis 0.000000 0.000000 0.000000 0.000000 0.000000 0.000000 10.000000 
L_Hip 0.000000 0.000000 0.000000 0.000000 0.000000 0.000000 10.000000 
R_Hip 0.000000 0.000000 0.000000 0.000000 0.000000 0.000000 10.000000 
Rear_Leg01 0.000000 0.000000 0.000000 0.000000 0.000000 0.000000 10.000000 
Spine1 0.000000 0.000000 0.000000 0.000000 0.000000 0.000000 10.000000 
L_Leg01 0.000000 0.000000 0.000000 0.000000 0.000000 0.000000 10.000000 
L_Leg02 0.000000 0.000000 0.000000 0.000000 0.000000 0.000000 10.000000 
L_Leg03 0.000000 0.000000 0.000000 0.000000 0.000000 0.000000 10.000000 
L_Foot 0.000000 0.000000 0.000000 0.000000 0.000000 0.000000 10.000000 
L_Toe1_01 0.000000 0.000000 0.000000 0.000000 0.000000 0.000000 10.000000 
L_Toe2_01 0.000000 0.000000 0.000000 0.000000 0.000000 0.000000 10.000000 
L_Toe3_01 0.000000 0.000000 0.000000 0.000000 0.000000 0.000000 10.000000 
planeAlignerLeft 0.000000 0.000000 0.000000 0.000000 0.000000 0.000000 10.000000 
L_Toe1_02 0.000000 0.000000 0.000000 0.000000 0.000000 0.000000 10.000000 
L_Toe1_03 0.000000 0.000000 0.000000 0.000000 0.000000 0.000000 10.000000 
L_Toe2_02 0.000000 0.000000 0.000000 0.000000 0.000000 0.000000 10.000000 
L_Toe2_03 0.000000 0.000000 0.000000 0.000000 0.000000 0.000000 10.000000 
L_Toe3_02 0.000000 0.000000 0.000000 0.000000 0.000000 0.000000 10.000000 
L_Toe3_03 0.000000 0.000000 0.000000 0.000000 0.000000 0.000000 10.000000 
planeLockWeightLeft 0.000000 0.000000 0.000000 0.000000 0.000000 0.000000 10.000000 
R_Leg01 0.000000 0.000000 0.000000 0.000000 0.000000 0.000000 10.000000 
R_Leg02 0.000000 0.000000 0.000000 0.000000 0.000000 0.000000 10.000000 
R_Leg03 0.000000 0.000000 0.000000 0.000000 0.000000 0.000000 10.000000 
R_Foot 0.000000 0.000000 0.000000 0.000000 0.000000 0.000000 10.000000 
planeAlignerRight 0.000000 0.000000 0.000000 0.000000 0.000000 0.000000 10.000000 
R_Toe1_01 0.000000 0.000000 0.000000 0.000000 0.000000 0.000000 10.000000 
R_Toe2_01 0.000000 0.000000 0.000000 0.000000 0.000000 0.000000 10.000000 
R_Toe3_01 0.000000 0.000000 0.000000 0.000000 0.000000 0.000000 10.000000 
planeLockWeightRight 0.000000 0.000000 0.000000 0.000000 0.000000 0.000000 10.000000 
R_Toe1_02 0.000000 0.000000 0.000000 0.000000 0.000000 0.000000 10.000000 
R_Toe1_03 0.000000 0.000000 0.000000 0.000000 0.000000 0.000000 10.000000 
R_Toe2_02 0.000000 0.000000 0.000000 0.000000 0.000000 0.000000 10.000000 
R_Toe2_03 0.000000 0.000000 0.000000 0.000000 0.000000 0.000000 10.000000 
R_Toe3_02 0.000000 0.000000 0.000000 0.000000 0.000000 0.000000 10.000000 
R_Toe3_03 0.000000 0.000000 0.000000 0.000000 0.000000 0.000000 10.000000 
Rear_Leg02 0.000000 0.000000 0.000000 0.000000 0.000000 0.000000 10.000000 
Rear_Leg03 0.000000 0.000000 0.000000 0.000000 0.000000 0.000000 10.000000 
Rear_Leg04 0.000000 0.000000 0.000000 0.000000 0.000000 0.000000 10.000000 
Rear_Foot 0.000000 0.000000 0.000000 0.000000 0.000000 0.000000 10.000000 
planeAlignerCenter 0.000000 0.000000 0.000000 0.000000 0.000000 0.000000 10.000000 
Rear_Toe1_01 0.000000 0.000000 0.000000 0.000000 0.000000 0.000000 10.000000 
Rear_Toe2_01 0.000000 0.000000 0.000000 0.000000 0.000000 0.000000 10.000000 
Rear_Toe3_01 0.000000 0.000000 0.000000 0.000000 0.000000 0.000000 10.000000 
planeLockWeightCenter 0.000000 0.000000 0.000000 0.000000 0.000000 0.000000 10.000000 
Rear_Toe1_02 0.000000 0.000000 0.000000 0.000000 0.000000 0.000000 10.000000 
Rear_Toe1_03 0.000000 0.000000 0.000000 0.000000 0.000000 0.000000 10.000000 
Rear_Toe2_02 0.000000 0.000000 0.000000 0.000000 0.000000 0.000000 10.000000 
Rear_Toe2_03 0.000000 0.000000 0.000000 0.000000 0.000000 0.000000 10.000000 
Rear_Toe3_02 0.000000 0.000000 0.000000 0.000000 0.000000 0.000000 10.000000 
Rear_Toe3_03 0.000000 0.000000 0.000000 0.000000 0.000000 0.000000 10.000000 
Back_Bone 0.000000 0.000000 0.000000 0.000000 0.000000 0.000000 10.000000 
Head 0.000000 0.000000 0.000000 0.000000 0.000000 0.000000 10.000000 
Motor_Bone 0.000000 0.000000 0.000000 0.000000 0.000000 0.000000 10.000000 
Ping_Mechanism 0.000000 0.000000 0.000000 0.000000 0.000000 0.000000 10.000000 
BN_LookIK 0.000000 0.000000 0.000000 0.000000 0.000000 0.000000 10.000000 
bottomMouth 0.000000 0.000000 0.000000 0.000000 0.000000 0.000000 10.000000 
L_Mouth01 0.000000 0.000000 0.000000 0.000000 0.000000 0.000000 10.000000 
L_mouthFront 0.000000 0.000000 0.000000 0.000000 0.000000 0.000000 10.000000 
mouthGun 0.000000 0.000000 0.000000 0.000000 0.000000 0.000000 10.000000 
R_Mouth01 0.000000 0.000000 0.000000 0.000000 0.000000 0.000000 10.000000 
R_mouthFront 0.000000 0.000000 0.000000 0.000000 0.000000 0.000000 10.000000 
TopMouth 0.000000 0.000000 0.000000 0.000000 0.000000 0.000000 10.000000 
weapon_bone 0.000000 0.000000 0.000000 0.000000 0.000000 0.000000 10.000000 
#Beginning of Data. Separated by tabs
#Fr	Tx	Ty	Tz	Rx	Ry	Rz	SF
[Pinger_Root]
54 0.000000 0.000000 0.000000 0.000053 0.000053 89.999924 0.000000
55 0.000000 0.000000 0.000000 0.000053 0.000053 89.999939 0.000000
56 0.000000 0.000000 0.000000 0.000053 0.000053 89.999939 0.000000
[Pelvis]
54 178.290817 858.688110 4429.708984 -101.202065 -85.962204 94.152359 4515.689941
55 124.946129 889.239319 4431.179688 -100.844574 -85.966675 93.540085 4521.250977
56 86.799637 909.317810 4431.986816 -100.485916 -85.970757 92.926674 4525.141113
[L_Hip]
54 5.766392 125.831482 872.656799 160.158691 -45.484905 122.312202 881.701050
55 5.766392 125.831482 872.656799 160.158691 -45.484905 122.312202 881.701050
56 5.766392 125.831482 872.656799 160.158691 -45.484905 122.312202 881.701050
[R_Hip]
54 5.765438 125.836372 -872.654907 38.087841 49.812687 125.703735 881.699829
55 5.765438 125.836372 -872.654907 38.087841 49.812687 125.703735 881.699829
56 5.765438 125.836372 -872.654907 38.087841 49.812687 125.703735 881.699829
[Rear_Leg01]
54 -192.298416 -925.602966 -0.001907 169.813690 0.523322 -156.928864 945.367432
55 -192.298416 -925.602966 -0.001907 169.733826 1.303268 -158.397095 945.367432
56 -192.298416 -925.602966 -0.001907 169.694122 1.781128 -159.318024 945.367432
[Spine1]
54 290.604584 5.007505 0.000477 6.735252 -0.369988 19.283731 290.647736
55 290.604584 5.007505 0.000477 6.912075 -0.453338 19.278351 290.647736
56 290.604584 5.007505 0.000477 7.088903 -0.536671 19.272713 290.647736
[L_Leg01]
54 761.932007 -0.002384 -0.069261 23.745323 -15.494978 -8.774814 761.932068
55 761.932007 -0.002384 -0.069261 23.340668 -15.567704 -8.904331 761.932068
56 761.932007 -0.002384 -0.069261 22.936033 -15.641301 -9.033350 761.932068
[L_Leg02]
54 1441.140503 -0.000954 -0.000715 2.148277 -0.193399 -125.968307 1441.140503
55 1441.140503 -0.000954 -0.000715 2.406376 -0.188157 -127.602592 1441.140503
56 1441.140503 -0.000954 -0.000715 2.552095 -0.186363 -128.635483 1441.140503
[L_Leg03]
54 1686.963989 -0.000715 -0.000954 -0.027493 0.010224 117.104103 1686.963989
55 1686.963989 -0.000715 -0.000954 -0.028736 0.012450 117.558090 1686.963989
56 1686.963989 -0.000715 -0.000954 -0.029961 0.014686 118.012062 1686.963989
[L_Foot]
54 3041.570068 -30.715107 11.297464 -5.278249 13.127914 53.460827 3041.746094
55 3041.570068 -30.715107 11.297464 -1.685445 13.105680 54.507095 3041.746094
56 3041.570068 -30.715107 11.297464 0.934274 13.090921 55.217808 3041.746094
[L_Toe1_01]
54 -188.216690 -224.732346 -21.137953 87.779572 -4.899632 -171.737000 293.899567
55 -188.216690 -224.732346 -21.137953 90.774284 -5.877542 -171.868958 293.899567
56 -188.216690 -224.732346 -21.137953 92.899292 -6.590136 -171.941772 293.899567
[L_Toe2_01]
54 200.746536 -219.926590 148.838394 -86.339569 -20.089920 -54.865494 332.896027
55 200.746536 -219.926590 148.838394 -88.149712 -23.247990 -53.839703 332.896027
56 200.746536 -219.926590 148.838394 -89.495033 -25.457836 -53.016922 332.896027
[L_Toe3_01]
54 188.832520 -219.859131 -191.078659 -97.583313 20.974957 -65.989021 347.140900
55 188.832520 -219.859131 -191.078659 -98.722466 17.380243 -66.881081 347.140900
56 188.832520 -219.859131 -191.078659 -99.495689 14.831662 -67.460800 347.140900
[planeAlignerLeft]
54 31.890869 -600.314026 39.383865 169.216553 -82.288918 90.001831 602.449219
55 32.198788 -597.500183 70.007355 169.225922 -79.271820 89.991325 602.448547
56 32.609859 -594.446472 92.282455 169.284241 -77.128487 89.970367 602.450073
[L_Toe1_02]
54 413.761139 0.000477 0.000000 0.001384 -26.006163 0.001384 413.761139
55 413.761139 0.000477 0.000000 0.001384 -26.008421 0.001384 413.761139
56 413.761139 0.000477 0.000000 0.001384 -26.010674 0.001384 413.761139
[L_Toe1_03]
54 464.317322 0.000358 -0.000089 0.003808 54.098392 0.003808 464.317322
55 464.317322 0.000358 -0.000089 0.003783 53.851959 0.003783 464.317322
56 464.317322 0.000358 -0.000089 0.003758 53.605530 0.003758 464.317322
[L_Toe2_02]
54 342.235809 -0.000477 0.000238 0.001188 -72.291809 0.001188 342.235809
55 342.235809 -0.000477 0.000238 0.001188 -72.328537 0.001188 342.235809
56 342.235809 -0.000477 0.000238 0.001188 -72.365273 0.001188 342.235809
[L_Toe2_03]
54 420.210846 -0.000715 0.000000 0.029783 85.483124 0.029783 420.210846
55 420.210846 -0.000715 0.000000 0.029548 85.447403 0.029548 420.210846
56 420.210846 -0.000715 0.000000 0.029317 85.411407 0.029317 420.210846
[L_Toe3_02]
54 329.270111 0.000954 0.000000 0.001177 -80.791664 0.001177 329.270111
55 329.270111 0.000954 0.000000 0.001177 -80.687973 0.001177 329.270111
56 329.270111 0.000954 0.000000 0.001178 -80.584183 0.001178 329.270111
[L_Toe3_03]
54 439.137451 -0.001907 0.000954 -179.996490 77.466797 -179.992966 439.137451
55 439.137451 -0.001907 0.000954 -179.996338 77.846428 -179.992813 439.137451
56 439.137451 -0.001907 0.000954 -179.996155 78.226105 -179.992645 439.137451
[planeLockWeightLeft]
54 1000.000122 0.097986 0.076137 -0.011826 -0.004376 0.005620 1000.000122
55 1000.000122 0.097978 0.076138 -0.011826 -0.004376 0.005620 1000.000122
56 1000.000122 0.097970 0.076140 -0.011826 -0.004376 0.005620 1000.000122
[R_Leg01]
54 761.455627 -0.001907 -0.000358 121.246407 -10.048292 36.060684 761.455688
55 761.455627 -0.001907 -0.000358 120.623863 -9.089840 35.849991 761.455688
56 761.455627 -0.001907 -0.000358 120.281693 -8.429310 35.691517 761.455688
[R_Leg02]
54 1441.140625 0.000000 -0.000238 -1.428137 -0.239867 -121.359894 1441.140625
55 1441.140625 0.000000 -0.000238 -1.390198 -0.223070 -120.302498 1441.140625
56 1441.140625 0.000000 -0.000238 -1.351959 -0.206977 -119.245171 1441.140625
[R_Leg03]
54 1686.963989 0.000954 0.001431 0.078330 -0.045059 132.010834 1686.963989
55 1686.963989 0.000954 0.001431 0.077475 -0.044565 131.809845 1686.963989
56 1686.963989 0.000954 0.001431 0.076619 -0.044074 131.608841 1686.963989
[R_Foot]
54 3041.560059 -30.531288 -11.204481 -2.460956 -24.671883 56.296635 3041.734131
55 3041.560059 -30.531288 -11.204481 -1.448290 -24.675575 55.868317 3041.734131
56 3041.560059 -30.531288 -11.204481 -0.989070 -24.680952 55.606335 3041.734131
[planeAlignerRight]
54 -126.425476 -573.980652 -313.516083 -36.577137 -71.339012 -64.343925 666.130249
55 -126.502991 -573.984314 -313.477203 -36.577137 -71.339012 -64.343925 666.129822
56 -126.580505 -573.988037 -313.438324 -36.577137 -71.339012 -64.343925 666.129456
[R_Toe1_01]
54 -188.383347 -224.864899 21.052242 76.766716 -0.362749 -172.728592 294.101532
55 -188.383347 -224.864899 21.052242 76.765656 -0.380030 -172.728622 294.101532
56 -188.383347 -224.864899 21.052242 76.764603 -0.397313 -172.728668 294.101532
[R_Toe2_01]
54 200.637817 -220.002121 -148.787384 -91.691681 32.844753 -59.151871 332.857574
55 200.637817 -220.002121 -148.787384 -91.708847 32.854443 -59.161957 332.857574
56 200.637817 -220.002121 -148.787384 -91.726059 32.864143 -59.172054 332.857574
[R_Toe3_01]
54 188.606735 -220.092957 191.126343 -73.179970 -8.473847 -73.769142 347.192566
55 188.606735 -220.092957 191.126343 -73.195313 -8.468184 -73.764809 347.192566
56 188.606735 -220.092957 191.126343 -73.210670 -8.462526 -73.760490 347.192566
[planeLockWeightRight]
54 999.999329 0.000000 0.075778 -0.011823 -0.004379 -0.000027 999.999329
55 999.999329 0.000000 0.075769 -0.011823 -0.004379 -0.000027 999.999329
56 999.999329 0.000000 0.075759 -0.011823 -0.004379 -0.000027 999.999329
[R_Toe1_02]
54 413.762085 0.000477 -0.000119 0.001394 -24.691549 0.001394 413.762085
55 413.762085 0.000477 -0.000119 0.001394 -24.680861 0.001394 413.762085
56 413.762085 0.000477 -0.000119 0.001394 -24.670168 0.001394 413.762085
[R_Toe1_03]
54 464.317810 0.000000 0.001088 0.006625 69.593369 0.006625 464.317810
55 464.317810 0.000000 0.001088 0.006625 69.593369 0.006625 464.317810
56 464.317810 0.000000 0.001088 0.006625 69.593369 0.006625 464.317810
[R_Toe2_02]
54 342.234741 -0.000954 0.000238 0.001197 -67.209000 0.001197 342.234741
55 342.234741 -0.000954 0.000238 0.001197 -67.213089 0.001197 342.234741
56 342.234741 -0.000954 0.000238 0.001197 -67.217163 0.001197 342.234741
[R_Toe2_03]
54 420.210846 0.000715 -0.000268 0.008223 73.588913 0.008223 420.210846
55 420.210846 0.000715 -0.000268 0.008227 73.596657 0.008227 420.210846
56 420.210846 0.000715 -0.000268 0.008231 73.604370 0.008231 420.210846
[R_Toe3_02]
54 329.270355 -0.000477 -0.000954 0.001184 -74.518616 0.001184 329.270355
55 329.270355 -0.000477 -0.000954 0.001184 -74.518616 0.001184 329.270355
56 329.270355 -0.000477 -0.000954 0.001184 -74.518616 0.001184 329.270355
[R_Toe3_03]
54 439.137939 0.000238 0.001431 -0.011599 83.308540 -0.008097 439.137939
55 439.137939 0.000238 0.001431 -0.011595 83.305809 -0.008093 439.137939
56 439.137939 0.000238 0.001431 -0.011591 83.303001 -0.008089 439.137939
[Rear_Leg02]
54 1162.777710 -0.029802 0.005960 0.813605 -2.871278 -122.911308 1162.777710
55 1162.777710 -0.029802 0.005960 0.733240 -2.890815 -123.265724 1162.777710
56 1162.777710 -0.029802 0.005960 0.652999 -2.910849 -123.620102 1162.777710
[Rear_Leg03]
54 607.192505 -0.013351 -0.073195 0.010602 -0.004875 65.742004 607.192505
55 607.192505 -0.013351 -0.073195 0.010630 -0.004811 65.059250 607.192505
56 607.192505 -0.013351 -0.073195 0.008555 -0.003460 64.760574 607.192505
[Rear_Leg04]
54 995.874512 -0.020504 -0.011921 -0.043372 -0.018463 60.946484 995.874573
55 995.874512 -0.020504 -0.011921 -0.041970 -0.016711 59.913258 995.874573
56 995.874512 -0.020504 -0.011921 -0.040601 -0.014935 58.880051 995.874573
[Rear_Foot]
54 3096.176270 -0.067472 -0.041425 -153.100662 84.376770 37.581665 3096.176270
55 3096.176270 -0.067472 -0.041425 -148.761429 85.111961 43.078972 3096.176270
56 3096.176270 -0.067472 -0.041425 -145.321320 85.579071 47.185688 3096.176270
[planeAlignerCenter]
54 0.919994 -16.081694 -776.966064 12.240772 -0.001473 179.998184 777.133057
55 0.920145 -16.081644 -776.967651 12.240769 -0.001473 179.998184 777.134583
56 0.920297 -16.081593 -776.969238 12.240772 -0.001473 179.998184 777.136230
[Rear_Toe1_01]
54 0.653352 83.966492 -371.173737 0.288992 41.914127 90.412262 380.553192
55 0.653352 83.966492 -371.173737 0.288694 41.914127 90.412575 380.553192
56 0.653352 83.966492 -371.173737 0.288387 41.914127 90.412857 380.553192
[Rear_Toe2_01]
54 178.200760 -294.826019 -362.060547 -7.196267 34.406261 -66.271294 499.765686
55 178.200760 -294.826019 -362.060547 -7.196267 34.406261 -66.271294 499.765686
56 178.200760 -294.826019 -362.060547 -7.196267 34.406261 -66.271294 499.765686
[Rear_Toe3_01]
54 -153.359680 -308.780914 -362.060852 3.289418 33.518005 -112.540970 499.952881
55 -153.359680 -308.780914 -362.060852 3.289418 33.518005 -112.540970 499.952881
56 -153.359680 -308.780914 -362.060852 3.289418 33.518005 -112.540970 499.952881
[planeLockWeightCenter]
54 1000.000244 0.000305 0.076396 -0.011814 -0.004373 -0.000015 1000.000244
55 1000.000244 0.000305 0.076394 -0.011814 -0.004373 -0.000015 1000.000244
56 1000.000244 0.000305 0.076391 -0.011814 -0.004373 -0.000015 1000.000244
[Rear_Toe1_02]
54 379.707825 0.194073 0.000477 -0.000241 -31.660664 0.006933 379.707855
55 379.707825 0.194073 0.000477 -0.000241 -31.666021 0.006934 379.707855
56 379.707825 0.194073 0.000477 -0.000242 -31.671379 0.006934 379.707855
[Rear_Toe1_03]
54 500.129700 0.165701 0.000119 -0.000104 51.899181 0.007295 500.129761
55 500.129700 0.165701 0.000119 -0.000104 51.900280 0.007295 500.129761
56 500.129700 0.165701 0.000119 -0.000103 51.901386 0.007295 500.129761
[Rear_Toe2_02]
54 340.494507 0.000238 -0.000954 0.001192 -69.854523 0.001192 340.494507
55 340.494507 0.000238 -0.000954 0.001192 -69.854523 0.001192 340.494507
56 340.494507 0.000238 -0.000954 0.001192 -69.854523 0.001192 340.494507
[Rear_Toe2_03]
54 433.103577 0.000000 0.000238 0.006696 69.810326 0.006696 433.103546
55 433.103577 0.000000 0.000238 0.006696 69.810326 0.006696 433.103546
56 433.103577 0.000000 0.000238 0.006696 69.810326 0.006696 433.103546
[Rear_Toe3_02]
54 340.494141 -0.000358 -0.000477 0.008288 -67.274704 -0.009460 340.494171
55 340.494141 -0.000358 -0.000477 0.008288 -67.274704 -0.009460 340.494171
56 340.494141 -0.000358 -0.000477 0.008288 -67.274704 -0.009460 340.494171
[Rear_Toe3_03]
54 433.103577 0.001431 -0.000238 -0.000972 65.958984 -0.004547 433.103546
55 433.103577 0.001431 -0.000238 -0.000972 65.958984 -0.004547 433.103546
56 433.103577 0.001431 -0.000238 -0.000972 65.958984 -0.004547 433.103546
[Back_Bone]
54 1312.175781 -701.934692 0.000954 0.000023 -0.000007 -85.606667 1488.125488
55 1312.175781 -701.934692 0.000954 0.000023 -0.000007 -85.606667 1488.125488
56 1312.175781 -701.934692 0.000954 0.000023 -0.000007 -85.606667 1488.125488
[Head]
54 1406.159424 809.709290 0.001431 0.000625 -1.475623 7.768025 1622.625488
55 1406.159424 809.709290 0.001431 0.000625 -1.475624 7.768028 1622.625488
56 1406.159424 809.709290 0.001431 0.000625 -1.475623 7.768025 1622.625488
[Motor_Bone]
54 1158.364380 -417.834747 0.000477 -0.095385 0.076104 -105.915703 1231.419434
55 1158.364380 -417.834747 0.000477 -0.095385 0.076104 -105.915703 1231.419434
56 1158.364380 -417.834747 0.000477 -0.095385 0.076104 -105.915703 1231.419434
[Ping_Mechanism]
54 1233.692871 -441.761719 -1.609575 0.000103 -0.000053 82.120995 1310.402344
55 1233.711060 -441.764282 -1.179367 0.000103 -0.000053 82.120995 1310.419800
56 1233.729126 -441.766815 -0.749160 0.000103 -0.000053 82.120995 1310.437378
[BN_LookIK]
54 193.241119 1380.371704 -0.002861 0.000000 89.965736 -31.038179 1393.832153
55 193.241119 1380.371704 -0.002861 0.000000 89.965736 -31.038179 1393.832153
56 193.241119 1380.371704 -0.002861 0.000000 89.965736 -31.038179 1393.832153
[bottomMouth]
54 -435.092926 615.759399 -0.000954 -0.000022 0.000016 73.527184 753.966492
55 -435.092926 615.759399 -0.000954 -0.000022 0.000016 73.527184 753.966492
56 -435.092926 615.759399 -0.000954 -0.000022 0.000016 73.527184 753.966492
[L_Mouth01]
54 554.440979 7.658243 838.222046 150.204178 23.759130 109.605339 1005.027161
55 554.440979 7.658243 838.222046 150.204178 23.759130 109.605339 1005.027161
56 554.440979 7.658243 838.222046 150.204178 23.759130 109.605339 1005.027161
[L_mouthFront]
54 551.629089 934.514771 339.150421 0.000081 2.804060 79.119301 1136.941284
55 551.629089 934.514771 339.150421 0.000081 2.804060 79.119301 1136.941284
56 551.629089 934.514771 339.150421 0.000081 2.804060 79.119301 1136.941284
[mouthGun]
54 55.332661 1627.420898 0.000000 0.000023 0.000009 -11.038128 1628.361328
55 55.332661 1627.420898 0.000000 0.000023 0.000009 -11.038128 1628.361328
56 55.332661 1627.420898 0.000000 0.000023 0.000009 -11.038128 1628.361328
[R_Mouth01]
54 554.442383 7.659197 -838.223938 29.795891 -23.759109 109.605331 1005.029541
55 554.442383 7.659197 -838.223938 29.795891 -23.759109 109.605331 1005.029541
56 554.442383 7.659197 -838.223938 29.795891 -23.759109 109.605331 1005.029541
[R_mouthFront]
54 551.629089 934.514282 -339.151367 0.000029 -2.803930 79.119133 1136.941162
55 551.629089 934.514282 -339.151367 0.000029 -2.803930 79.119133 1136.941162
56 551.629089 934.514282 -339.151367 0.000029 -2.803930 79.119133 1136.941162
[TopMouth]
54 461.269867 -56.106091 -0.008583 -0.000059 -0.000268 92.025169 464.669525
55 461.269867 -56.106091 -0.008583 -0.000059 -0.000268 92.025169 464.669525
56 461.269867 -56.106091 -0.008583 -0.000059 -0.000268 92.025169 464.669525
[weapon_bone]
54 -987.239868 1448.372803 0.001431 0.000000 89.965736 -31.038221 1752.833740
55 -987.239868 1448.372803 0.001431 0.000000 89.965736 -31.038221 1752.833740
56 -987.239868 1448.372803 0.001431 0.000000 89.965736 -31.038221 1752.833740
